<svg width="100" height="29" xmlns="http://www.w3.org/2000/svg" viewBox="0 0 100 29"><g fill="none" fill-rule="evenodd"><g fill="#01405E" fill-rule="nonzero"><path d="M.006 27.412c-.045.296.16.501.433.501h2.689c.228 0 .41-.182.433-.364l1.002-7.04h.046l3.85 7.382c.069.136.251.25.388.25h.41a.533.533 0 0 0 .387-.25l3.828-7.383h.046l1.025 7.04c.023.183.228.365.433.365h2.689c.273 0 .478-.205.432-.501l-2.574-15.311a.436.436 0 0 0-.41-.365h-.365c-.114 0-.319.091-.387.228l-5.286 9.843h-.046l-5.286-9.843c-.068-.137-.273-.228-.387-.228H2.99a.436.436 0 0 0-.41.365L.006 27.412zM19.396 25.134c0 1.8 1.345 3.007 3.145 3.007 1.435 0 2.232-.66 2.756-1.14l.32.616c.113.25.273.296.41.296h1.002a.448.448 0 0 0 .433-.433v-5.035c0-2.689-1.025-3.873-3.85-3.873-1.231 0-2.826.273-3.031.341-.205.069-.41.228-.342.615l.205 1.436c.046.342.205.592.547.478.593-.182 1.663-.341 2.279-.341 1.093 0 1.23.455 1.23 1.344 0 0-.73-.365-1.754-.365-2.074 0-3.35 1.3-3.35 3.054zm2.962-.228c0-.524.433-.957.98-.957.547 0 .98.433 1.003.957 0 .547-.456 1.002-1.003 1.002a.992.992 0 0 1-.98-1.002zM29.33 27.913h2.712c.16 0 .296-.09.364-.182.388-.547 1.003-1.344 1.459-1.982h.068l1.39 1.96c.068.09.182.204.342.204h2.757c.364 0 .546-.387.341-.683l-2.893-3.988 2.87-3.76c.228-.295.046-.683-.341-.683h-2.803c-.228 0-.319.092-.364.183l-1.3 1.868h-.067l-1.276-1.868c-.046-.091-.183-.183-.365-.183h-2.802c-.388 0-.57.388-.342.684l2.87 3.782-2.961 3.965c-.205.296-.046.683.341.683z"/></g><g fill="#01405E" fill-rule="nonzero"><path d="M59.805 27.48c0 .228.205.433.433.433h2.507a.448.448 0 0 0 .433-.433V12.397a.448.448 0 0 0-.433-.433h-2.507a.448.448 0 0 0-.433.433V27.48zM67.302 16.042a1.809 1.809 0 0 0 1.822-1.8c0-1.002-.82-1.822-1.822-1.822-1.003 0-1.8.82-1.8 1.822 0 1.003.797 1.8 1.8 1.8zM65.638 27.48c0 .228.205.433.433.433h2.507a.448.448 0 0 0 .432-.433v-8.248a.433.433 0 0 0-.432-.433H66.07a.433.433 0 0 0-.433.433v8.248zM70.81 23.356c0 2.62 1.937 4.785 4.512 4.785 2.005 0 3.053-1.435 3.053-1.435l.273.752c.092.25.251.455.479.455h1.07a.448.448 0 0 0 .434-.433V12.397a.448.448 0 0 0-.433-.433h-2.53a.448.448 0 0 0-.432.433v6.607c-.274-.16-1.117-.432-1.891-.432-2.438 0-4.535 1.572-4.535 4.784zm3.122-.022c0-1.026.797-1.823 1.846-1.823 1.048 0 1.822.797 1.822 1.823 0 1.048-.774 1.868-1.822 1.868-1.049 0-1.846-.82-1.846-1.868zM82.408 23.356c0 2.62 2.05 4.785 4.762 4.785 1.435 0 2.575-.501 3.372-1.299.205-.205.16-.478.023-.66l-1.14-1.367c-.136-.16-.364-.16-.569 0-.365.273-1.025.546-1.595.546-1.185 0-1.686-.888-1.754-1.503h5.468a.44.44 0 0 0 .433-.388c.023-.16.045-.455.045-.615 0-2.506-2.005-4.283-4.329-4.283-2.688 0-4.716 2.21-4.716 4.784zm3.395-1.276c.091-.592.615-1.07 1.23-1.07.593 0 1.162.478 1.208 1.07h-2.438zM93.094 27.48c0 .228.205.433.433.433h2.324c.365 0 .501-.16.501-.433v-4.716c0-.775.524-1.299 1.208-1.299.205 0 .433.069.547.114.25.091.41-.045.5-.205l1.117-1.823c.32-.524-.57-.98-1.822-.98-1.185 0-2.028.844-2.484 1.504l-.41-1.002c-.068-.137-.16-.274-.41-.274h-1.071a.433.433 0 0 0-.433.433v8.248z"/></g><path d="m51.02 3.516 4.258-.699-.4-2.817 5.959 4.361-4.361 5.959-.4-2.58-4.58.717v.006c-.107.014-.213.028-.318.044l-.156.024c-.822.134-1.578.331-2.282.505-.923.228-1.686.444-2.29.65-.604.205-.906.341-.906.41-.022.113.28.267.906.461.627.194 1.407.456 2.341.786.934.33 1.937.752 3.008 1.265a15.356 15.356 0 0 1 2.973 1.862 9.068 9.068 0 0 1 2.222 2.58c.57.992.82 2.125.752 3.401-.092 1.572-.41 2.86-.957 3.862-.547 1.003-1.242 1.789-2.085 2.359-.843.57-1.806.956-2.888 1.162a18.24 18.24 0 0 1-3.4.307c-1.186 0-2.257-.268-3.213-.803a8.796 8.796 0 0 1-2.427-1.965 8.979 8.979 0 0 1-1.52-2.478c-.354-.877-.508-1.646-.462-2.307.045-.66.102-1.259.17-1.794.069-.536.149-.997.24-1.385.09-.432.193-.831.307-1.196-.022.274-.045.581-.068.923-.023.296-.04.65-.051 1.06-.012.41-.006.865.017 1.367 0-.41.023-.838.068-1.282.046-.444.091-.849.137-1.213l.205-1.23.547-.616.17.41c-.113 1.755.115 3.133.684 4.136.57 1.002 1.31 1.731 2.222 2.187.911.456 1.908.69 2.99.7a13.205 13.205 0 0 0 3.06-.307c.956-.216 1.754-.501 2.392-.854.638-.353.968-.667.99-.94.023-.365-.17-.707-.58-1.026-.41-.319-.957-.632-1.64-.94a26.95 26.95 0 0 0-2.325-.905 97.246 97.246 0 0 1-2.666-.957 50.791 50.791 0 0 1-2.683-1.094 12.601 12.601 0 0 1-2.307-1.298c-.66-.479-1.19-1.02-1.589-1.624a3.176 3.176 0 0 1-.53-2c.046-.728.103-1.287.171-1.674.069-.387.126-.672.171-.854.069-.205.137-.308.205-.308.023-.615.33-1.156.923-1.623.592-.467 1.327-.872 2.204-1.214a19.345 19.345 0 0 1 2.871-.854 36.28 36.28 0 0 1 2.957-.53c.337-.045.658-.094.965-.137z" fill="#FC0"/></g></svg>
